<svg xmlns="http://www.w3.org/2000/svg" width="320" height="80" viewBox="0 0 320 80" shape-rendering="crispEdges"><g transform="translate(0 0)"><g transform=""><polygon points="34,43 27,24 10,17 7,45 15,41 20,49 30,49" fill="#414d4d"/><polygon points="31,41 24,29 14,24 12,38 22,42" fill="#7c8b81"/></g><g transform="translate(80 0) scale(-1 1)"><polygon points="34,43 27,24 10,17 7,45 15,41 20,49 30,49" fill="#414d4d"/><polygon points="31,41 24,29 14,24 12,38 22,42" fill="#7c8b81"/></g><polygon points="33,32 49,32 56,51 51,61 56,69 44,69 41,56 36,68 23,68 29,59 25,48" fill="#5b6665"/><polygon points="36,34 45,34 49,50 42,57 33,50" fill="#abb3a6"/><rect x="22" y="44" width="7" height="18" fill="#7c8b81"/><rect x="51" y="44" width="7" height="18" fill="#7c8b81"/><polygon points="29,22 27,13 36,21 46,21 53,13 51,31 45,37 35,35" fill="#abb3a6"/><rect x="32" y="27" width="5" height="3" fill="#cae6ac"/><rect x="44" y="27" width="5" height="3" fill="#cae6ac"/><polygon points="36,32 47,32 45,37 39,37" fill="#384345"/><rect x="22" y="66" width="15" height="5" fill="#abb3a6"/><rect x="44" y="66" width="14" height="5" fill="#abb3a6"/></g><g transform="translate(80 0)"><g transform=""><polygon points="34,43 27,21 10,14 7,42 15,41 20,49 30,49" fill="#414d4d"/><polygon points="31,41 24,26 14,21 12,35 22,42" fill="#7c8b81"/></g><g transform="translate(80 0) scale(-1 1)"><polygon points="34,43 27,21 10,14 7,42 15,41 20,49 30,49" fill="#414d4d"/><polygon points="31,41 24,26 14,21 12,35 22,42" fill="#7c8b81"/></g><polygon points="33,32 49,32 56,51 51,61 56,69 44,69 41,56 36,68 23,68 29,59 25,48" fill="#5b6665"/><polygon points="36,34 45,34 49,50 42,57 33,50" fill="#abb3a6"/><rect x="22" y="44" width="7" height="18" fill="#7c8b81"/><rect x="51" y="44" width="7" height="18" fill="#7c8b81"/><polygon points="29,22 27,13 36,21 46,21 53,13 51,31 45,37 35,35" fill="#abb3a6"/><rect x="32" y="27" width="5" height="3" fill="#cae6ac"/><rect x="44" y="27" width="5" height="3" fill="#cae6ac"/><polygon points="36,32 47,32 45,37 39,37" fill="#384345"/><rect x="22" y="66" width="15" height="5" fill="#abb3a6"/><rect x="44" y="66" width="14" height="5" fill="#abb3a6"/></g><g transform="translate(160 0)"><g transform=""><polygon points="34,43 27,24 10,17 7,45 15,41 20,49 30,49" fill="#414d4d"/><polygon points="31,41 24,29 14,24 12,38 22,42" fill="#7c8b81"/></g><g transform="translate(80 0) scale(-1 1)"><polygon points="34,43 27,24 10,17 7,45 15,41 20,49 30,49" fill="#414d4d"/><polygon points="31,41 24,29 14,24 12,38 22,42" fill="#7c8b81"/></g><polygon points="33,32 49,32 56,51 51,61 56,69 44,69 41,56 36,68 23,68 29,59 25,48" fill="#5b6665"/><polygon points="36,34 45,34 49,50 42,57 33,50" fill="#abb3a6"/><rect x="22" y="44" width="7" height="18" fill="#7c8b81"/><rect x="51" y="44" width="7" height="18" fill="#7c8b81"/><polygon points="29,22 27,13 36,21 46,21 53,13 51,31 45,37 35,35" fill="#abb3a6"/><rect x="32" y="27" width="5" height="3" fill="#cae6ac"/><rect x="44" y="27" width="5" height="3" fill="#cae6ac"/><polygon points="36,32 47,32 45,37 39,37" fill="#384345"/><rect x="22" y="66" width="15" height="5" fill="#abb3a6"/><rect x="44" y="66" width="14" height="5" fill="#abb3a6"/></g><g transform="translate(240 0)"><g transform=""><polygon points="34,43 27,27 10,20 7,48 15,41 20,49 30,49" fill="#414d4d"/><polygon points="31,41 24,32 14,27 12,41 22,42" fill="#7c8b81"/></g><g transform="translate(80 0) scale(-1 1)"><polygon points="34,43 27,27 10,20 7,48 15,41 20,49 30,49" fill="#414d4d"/><polygon points="31,41 24,32 14,27 12,41 22,42" fill="#7c8b81"/></g><polygon points="33,32 49,32 56,51 51,61 56,69 44,69 41,56 36,68 23,68 29,59 25,48" fill="#5b6665"/><polygon points="36,34 45,34 49,50 42,57 33,50" fill="#abb3a6"/><rect x="22" y="44" width="7" height="18" fill="#7c8b81"/><rect x="51" y="44" width="7" height="18" fill="#7c8b81"/><polygon points="29,22 27,13 36,21 46,21 53,13 51,31 45,37 35,35" fill="#abb3a6"/><rect x="32" y="27" width="5" height="3" fill="#cae6ac"/><rect x="44" y="27" width="5" height="3" fill="#cae6ac"/><polygon points="36,32 47,32 45,37 39,37" fill="#384345"/><rect x="22" y="66" width="15" height="5" fill="#abb3a6"/><rect x="44" y="66" width="14" height="5" fill="#abb3a6"/></g></svg>
