<svg xmlns="http://www.w3.org/2000/svg" width="64" height="64" viewBox="0 0 64 64"><defs>
      <linearGradient id="bg" x2=".9" y2="1"><stop stop-color="#304448"/><stop offset="1" stop-color="#111f27"/></linearGradient>
      <linearGradient id="metal" x2="1" y2=".7"><stop stop-color="#faf0d4"/><stop offset=".42" stop-color="#a7b989"/><stop offset="1" stop-color="#5e737b"/></linearGradient></defs>
      <rect x="2" y="2" width="60" height="60" rx="10" fill="url(#bg)" stroke="#749fcf" stroke-width="2"/>
      <ellipse cx="32" cy="52" rx="20" ry="5" fill="#071318" opacity=".6"/>
      <g stroke="#17262e" stroke-width="1.8" stroke-linejoin="round"><g transform="rotate(32 32 32)"><path d="M31 45L33 12L37 12L35 45Z" fill="#a78354"/><path d="M32 14L20 11L16 28L31 26L38 26L49 32L50 10L38 14Z" fill="url(#metal)"/><path d="M21 14L18 25M48 13V28" stroke="#f7ecd2"/><path d="M23 41Q34 38 45 41L43 46H24Z" fill="#a7b989"/><path d="M31 44H37V55H31Z" fill="#92603d"/><path d="M29 54H39V58H29Z" fill="#e2c46b"/><path d="M31 48H37M31 51H37" stroke="#d0a576"/></g><circle cx="52" cy="51" r="6" fill="#1c3037" stroke="#749fcf"/><path d="M49 51L52 47L55 51L52 55Z" fill="#e2c46b"/><path d="M8 55V52" stroke="#749fcf" stroke-width="1"/><path d="M12 55V51" stroke="#749fcf" stroke-width="1"/><path d="M8 9V12" stroke="#749fcf" stroke-width="2"/></g></svg>