<svg xmlns="http://www.w3.org/2000/svg" width="64" height="64" viewBox="0 0 64 64"><defs><linearGradient id="ink" x1="0" y1="1" x2="1" y2="0"><stop stop-color="#46b9ff"/><stop offset="1" stop-color="#a0eaff"/></linearGradient></defs><rect x="1" y="1" width="62" height="62" rx="10" fill="#122b29" stroke="#46b9ff" stroke-opacity=".65"/><circle cx="32" cy="32" r="26" fill="none" stroke="#46b9ff" stroke-opacity=".2"/><g stroke="#f7ffff" stroke-width="2.5" stroke-linecap="round"><path d="M32 10V54M13 21L51 43M13 43L51 21M26 14L32 20L38 14M26 50L32 44L38 50M14 28L22 27L20 19M44 45L42 37L50 36M14 36L22 37L20 45M44 19L42 27L50 28"/></g><circle cx="10.38" cy="17.56" r="1" fill="#a0eaff"/><circle cx="26.93" cy="6.50" r="1" fill="#a0eaff"/><circle cx="46.44" cy="10.38" r="1" fill="#a0eaff"/><circle cx="57.50" cy="26.93" r="1" fill="#a0eaff"/></svg>