<svg xmlns="http://www.w3.org/2000/svg" width="64" height="64" viewBox="0 0 64 64">
  <defs><radialGradient id="back"><stop stop-color="#204553"/><stop offset="1" stop-color="#112b29"/></radialGradient>
    <linearGradient id="ink" x1="0" y1="1" x2="1" y2="0"><stop stop-color="#7fc6d3"/><stop offset="1" stop-color="#c7e7e7"/></linearGradient></defs>
  <rect x="1" y="1" width="62" height="62" rx="10" fill="url(#back)" stroke="#7fc6d3" stroke-opacity=".75"/>
  <circle cx="32" cy="32" r="26" fill="none" stroke="#7fc6d3" stroke-opacity=".16"/>
  <path d="M9 46Q24 47 25 29Q26 9 45 13Q57 18 47 27Q49 18 39 23Q31 27 39 38Q45 45 55 43V52H10Z" fill="url(#ink)" stroke="#bee8df" stroke-width="1.8" stroke-linecap="round" stroke-linejoin="round" opacity="1"/><path d="M12 38Q21 33 16 26M9 32L16 25L22 31M49 33L49 43M44 38L49 44L54 38" fill="none" stroke="#d1ece3" stroke-width="2" stroke-linecap="round" stroke-linejoin="round" opacity="1"/><path d="M17 52Q30 46 45 51" fill="none" stroke="#d7f0dc" stroke-width="2" stroke-linecap="round" stroke-linejoin="round" opacity="1"/>
</svg>
