<svg xmlns="http://www.w3.org/2000/svg" width="64" height="64" viewBox="0 0 64 64"><defs><linearGradient id="g" x2="0.7" y2="1"><stop stop-color="#59507e"/><stop offset="1" stop-color="#1d1c31"/></linearGradient></defs><rect x="1" y="1" width="62" height="62" rx="11" fill="url(#g)" stroke="#ded4ff" stroke-width="2"/><g stroke="#ded4ff" stroke-width="2" stroke-linecap="round" stroke-linejoin="round"><path d="M18 54v-9l-6-7 7-4c-3-15 5-24 17-24 15 0 19 14 13 23-4 7-6 9-6 21Z" fill="#74629c"/><path d="M24 25q10-12 21 0-10 12-21 0Z" fill="#e4d5e8"/><circle cx="35" cy="25" r="4" fill="#312341"/><path d="M34 3v5M48 8l-4 5M20 9l5 4" fill="none"/><path d="M24 44h13" fill="none"/></g></svg>
